<?xml version="1.0" encoding="UTF-8" standalone="no"?>
<!-- Created with Inkscape (http://www.inkscape.org/) -->

<svg
   xmlns:dc="http://purl.org/dc/elements/1.1/"
   xmlns:cc="http://creativecommons.org/ns#"
   xmlns:rdf="http://www.w3.org/1999/02/22-rdf-syntax-ns#"
   xmlns:svg="http://www.w3.org/2000/svg"
   xmlns="http://www.w3.org/2000/svg"
   xmlns:sodipodi="http://sodipodi.sourceforge.net/DTD/sodipodi-0.dtd"
   xmlns:inkscape="http://www.inkscape.org/namespaces/inkscape"
   width="128px"
   height="128px"
   viewBox="0 0 128 128"
   version="1.1"
   id="SVGRoot"
   inkscape:version="0.92.3 (2405546, 2018-03-11)"
   sodipodi:docname="favicon.svg">
  <sodipodi:namedview
     id="base"
     pagecolor="#ffffff"
     bordercolor="#666666"
     borderopacity="1.0"
     inkscape:pageopacity="0.0"
     inkscape:pageshadow="2"
     inkscape:zoom="11.313708"
     inkscape:cx="58.76241"
     inkscape:cy="56.52408"
     inkscape:document-units="px"
     inkscape:current-layer="layer1"
     showgrid="false"
     inkscape:window-width="3840"
     inkscape:window-height="2074"
     inkscape:window-x="3840"
     inkscape:window-y="26"
     inkscape:window-maximized="1"
     inkscape:grid-bbox="true" />
  <defs
     id="defs815" />
  <metadata
     id="metadata818">
    <rdf:RDF>
      <cc:Work
         rdf:about="">
        <dc:format>image/svg+xml</dc:format>
        <dc:type
           rdf:resource="http://purl.org/dc/dcmitype/StillImage" />
        <dc:title></dc:title>
      </cc:Work>
    </rdf:RDF>
  </metadata>
  <g
     id="layer1"
     inkscape:groupmode="layer"
     inkscape:label="Layer 1">
    <path
       style="opacity:0.98999999;fill:#d1d1d4;fill-opacity:0.6561086;fill-rule:evenodd;stroke:#000000;stroke-width:1.79527569;stroke-linecap:butt;stroke-linejoin:miter;stroke-miterlimit:4;stroke-dasharray:none;stroke-opacity:1"
       d="M 54.472088,22.613027 C 40.113401,30.674045 30.960787,41.841913 33.185965,80.551589 34.259088,88.35463 38.269474,96.300193 47.667061,103.2277 36.460753,89.368328 43.597898,60.234578 49.438095,47.047387 60.541981,21.974765 85.962473,19.67056 108.12824,1.7887323 87.639813,19.170301 68.830775,14.55201 54.472088,22.613027 Z"
       id="path1376"
       inkscape:connector-curvature="0"
       sodipodi:nodetypes="sccscs" />
    <path
       style="fill:none;fill-rule:evenodd;stroke:#000000;stroke-width:1.79527569;stroke-linecap:butt;stroke-linejoin:miter;stroke-miterlimit:4;stroke-dasharray:none;stroke-opacity:1"
       d="m 31.711913,85.932617 c -0.196813,4.248213 2.558582,9.848136 4.920347,12.937766 7.288061,9.534117 16.511895,13.178047 17.811659,10.910197 1.337544,-2.33377 -3.542651,-7.24129 -3.542651,-7.24129"
       id="path1378"
       inkscape:connector-curvature="0"
       sodipodi:nodetypes="cssc" />
    <path
       style="fill:none;fill-rule:evenodd;stroke:#000000;stroke-width:1.79527569;stroke-linecap:butt;stroke-linejoin:miter;stroke-miterlimit:4;stroke-dasharray:none;stroke-opacity:1"
       d="m 26.536684,93.396459 c -0.196814,4.248214 2.558582,9.848141 4.920346,12.937771 7.288062,9.53411 16.511896,13.17805 17.81166,10.9102 1.337544,-2.33377 -3.54265,-7.24129 -3.54265,-7.24129"
       id="path1378-7"
       inkscape:connector-curvature="0"
       sodipodi:nodetypes="cssc" />
    <path
       style="fill:none;fill-rule:evenodd;stroke:#000000;stroke-width:1.79527569;stroke-linecap:butt;stroke-linejoin:miter;stroke-miterlimit:4;stroke-dasharray:none;stroke-opacity:1"
       d="m 20.239015,100.70175 c -0.196813,4.24821 2.558582,9.84814 4.920346,12.93777 7.288061,9.53411 16.511895,13.17805 17.81166,10.9102 1.337544,-2.33377 -3.542651,-7.24129 -3.542651,-7.24129"
       id="path1378-5"
       inkscape:connector-curvature="0"
       sodipodi:nodetypes="cssc" />
    <path
       style="fill:none;fill-rule:evenodd;stroke:#000000;stroke-width:1.07716537;stroke-linecap:butt;stroke-linejoin:miter;stroke-miterlimit:4;stroke-dasharray:none;stroke-opacity:1"
       d="m 18.517675,114.81445 c -0.09386,2.026 1.220205,4.69664 2.346546,6.17011 3.475723,4.54688 7.874628,6.28469 8.494495,5.20314 0.637883,-1.11299 -1.689513,-3.45342 -1.689513,-3.45342"
       id="path1378-3"
       inkscape:connector-curvature="0"
       sodipodi:nodetypes="cssc" />
    <path
       style="fill:#de2a00;fill-opacity:1;fill-rule:evenodd;stroke:#f80000;stroke-width:1.12126267px;stroke-linecap:butt;stroke-linejoin:miter;stroke-opacity:1"
       d="m 54.916848,64.635662 c 0.991066,-13.874917 1.189279,-14.667769 1.189279,-14.667769 0,0 3.072303,14.766877 3.072303,14.370449 0,-0.396425 7.036565,-8.721376 7.036565,-8.721376 l -4.558902,11.099933 13.874919,-0.792851 -17.640967,6.342819 z"
       id="path1437"
       inkscape:connector-curvature="0" />
    <path
       style="fill:#005900;fill-opacity:1;fill-rule:evenodd;stroke:#7fe261;stroke-width:1.2547766px;stroke-linecap:butt;stroke-linejoin:miter;stroke-opacity:1"
       d="M 62.739529,70.727309 C 73.56974,59.545786 74.309978,59.008685 74.309978,59.008685 c 0,0 -7.988451,14.869056 -7.703291,14.529214 0.285165,-0.339836 12.305695,-2.4149 12.305695,-2.4149 l -11.892649,6.236197 12.464743,9.300925 -19.685474,-7.252175 z"
       id="path1437-5"
       inkscape:connector-curvature="0" />
  </g>
</svg>
